<svg width="54" height="54" viewBox="0 0 54 54" fill="none" xmlns="http://www.w3.org/2000/svg">
<path fill-rule="evenodd" clip-rule="evenodd" d="M11.4298 17.9839C9.81528 20.7494 9 23.7707 9 27.0318C9 29.4777 9.4476 31.8116 10.4067 34.0176C11.3659 36.2237 12.6288 38.142 14.2433 39.7406C15.8579 41.3391 17.7762 42.634 19.9982 43.5771C22.2202 44.5203 24.5702 44.9999 27.016 44.9999C29.4618 44.9999 31.7798 44.5203 34.0018 43.5771C36.2238 42.634 38.1421 41.3551 39.7407 39.7565C41.3393 38.158 42.6341 36.2397 43.5773 34.0176C44.5204 31.7956 45 29.4617 45 27.0318C45 24.57 44.5204 22.2521 43.5773 20.0141C42.6341 17.7761 41.3552 15.8578 39.7407 14.2592C38.1261 12.6606 36.2238 11.3658 34.0018 10.4226C31.7798 9.47945 29.4458 8.99988 27.016 8.99988C23.7709 8.99988 20.7655 9.79917 18 11.4137C15.2345 13.0283 13.0444 15.2184 11.4298 17.9839ZM17.1048 36.9111C14.3393 34.1136 12.9645 30.8205 12.9645 27.0318C12.9645 24.5061 13.5719 22.1562 14.8508 19.9981C16.1297 17.84 17.8561 16.1295 19.9982 14.8667C22.1403 13.6038 24.4902 12.9803 27.016 12.9803C29.5417 12.9803 31.8757 13.6038 34.0337 14.8667C36.1918 16.1295 37.9023 17.84 39.1652 19.9981C40.4281 22.1562 41.0675 24.5061 41.0675 27.0318C41.0675 29.5576 40.4281 31.8915 39.1652 34.0496C37.9023 36.2077 36.1758 37.9022 34.0337 39.1651C31.8917 40.4279 29.5417 41.0514 27.016 41.0514C23.1634 41.0514 19.8703 39.6766 17.1048 36.9111Z" fill="white"/>
<path d="M21.0082 35.5865L26.7626 17.2103C26.778 17.0701 26.8547 17 26.9928 17C27.1309 17 27.2077 17.0701 27.223 17.2103L32.9621 35.5865C33.0235 35.7407 33.0082 35.8528 32.9314 35.9369C32.8547 36.021 32.7319 36.021 32.5631 35.9369L27.2383 34.1147C27.0849 34.0586 26.9314 34.0586 26.7933 34.1147L21.4225 35.9369C21.269 36.021 21.1616 36.021 21.1002 35.9369C21.0389 35.8528 20.9775 35.7267 21.0082 35.5865Z" fill="white"/>
</svg>
