<svg width="54" height="54" viewBox="0 0 54 54" fill="none" xmlns="http://www.w3.org/2000/svg">
<path d="M12 24.0068C12 21.9772 12.3895 20.0296 13.1891 18.164C13.9886 16.2984 15.0547 14.7198 16.4077 13.3872C17.7608 12.0547 19.3599 10.9886 21.205 10.1891C23.0501 9.38952 24.9977 9 27.0273 9C29.0569 9 31.0046 9.38952 32.8702 10.1891C34.7153 10.9886 36.3144 12.0547 37.6469 13.3872C38.9795 14.7198 40.0456 16.3189 40.8451 18.164C41.6446 20.0091 42.0342 21.9567 42.0342 24.0068C42.0342 27.328 41.0501 30.2802 39.082 32.9043C37.1139 35.508 34.5718 37.2916 31.4761 38.2551V45H22.7836V38.3371C19.6264 37.4146 17.0228 35.631 15.0137 32.9863C13.0046 30.3417 12 27.3485 12 24.0068ZM15.3007 24.0068C15.3007 27.1845 16.4487 29.9112 18.7654 32.1868C21.041 34.4829 23.7882 35.631 27.0068 35.631C29.1185 35.631 31.0866 35.1185 32.8702 34.0729C34.6743 33.0273 36.0888 31.6128 37.1549 29.8292C38.2005 28.0456 38.7335 26.0979 38.7335 23.9863C38.7335 22.4077 38.426 20.9112 37.8109 19.4556C37.1959 18 36.3554 16.7699 35.3098 15.7244C34.2642 14.6788 33.0137 13.8383 31.5581 13.2232C30.1025 12.6082 28.6059 12.3007 27.0273 12.3007C25.4487 12.3007 23.9522 12.6082 22.4966 13.2232C21.041 13.8383 19.8109 14.6788 18.7654 15.7244C17.7198 16.7699 16.8793 18.0205 16.2642 19.4556C15.6082 20.9317 15.3007 22.4282 15.3007 24.0068ZM16.4897 24.7449V23.2688H20.9385V24.7449H16.4897ZM18.7244 17.4875L19.7904 16.4214L22.9066 19.5376L21.8405 20.6241L18.7244 17.4875ZM23.9112 27.5945C23.9112 26.7335 24.2187 25.9954 24.8132 25.3599C25.4077 24.7244 26.1458 24.3964 26.9863 24.3759L32.5831 15.1708L33.9362 15.8884L29.795 25.7904C30.164 26.303 30.328 26.8975 30.328 27.5945C30.328 28.4966 30.0205 29.2551 29.385 29.8702C28.7494 30.4852 27.9909 30.7927 27.0888 30.7927C26.2073 30.7927 25.4487 30.4852 24.8337 29.8702C24.2187 29.2551 23.9112 28.4966 23.9112 27.5945ZM26.5968 18.0205V13.5923H28.0114V18.041H26.5968V18.0205ZM32.6241 24.7244V23.2073H37.0729V24.7244H32.6241Z" fill="white"/>
</svg>
