<svg width="54" height="54" viewBox="0 0 54 54" fill="none" xmlns="http://www.w3.org/2000/svg">
<path d="M27.0005 15.075C27.0172 12.7086 27.475 10.3661 28.3505 8.16749C27.923 8.16749 27.4955 8.16749 27.0455 8.16749C23.5981 8.16325 20.2149 9.09973 17.2604 10.8761C14.3059 12.6524 11.8921 15.2012 10.279 18.2479C8.66596 21.2946 7.91479 24.7237 8.10645 28.1657C8.29812 31.6078 9.42534 34.9323 11.3667 37.7811C13.308 40.6299 15.9899 42.895 19.1233 44.3323C22.2568 45.7696 25.723 46.3247 29.1486 45.9378C32.5742 45.5508 35.8293 44.2365 38.5632 42.1364C41.297 40.0363 43.406 37.2301 44.663 34.02C39.8621 33.6996 35.3635 31.5624 32.0824 28.043C28.8013 24.5237 26.9841 19.8866 27.0005 15.075V15.075Z" stroke="white" stroke-width="2.7" stroke-linecap="round" stroke-linejoin="round"/>
</svg>
