<svg width="54" height="54" viewBox="0 0 54 54" fill="none" xmlns="http://www.w3.org/2000/svg">
<path d="M39.9376 38.9474C41.5313 38.579 42.9618 37.7021 44.0133 36.4491C45.0648 35.1961 45.6802 33.6351 45.7666 32.0017C45.853 30.3683 45.4056 28.751 44.4921 27.3942C43.5786 26.0373 42.2485 25.0144 40.7026 24.4799C39.3506 24.0487 37.9106 23.9712 36.5202 24.2548C35.1297 24.5384 33.8352 25.1736 32.7601 26.0999C30.8245 27.9674 29.4739 30.0903 27.8776 32.4674C24.75 37.1249 18.2026 40.8599 12.5101 37.8899C11.1342 37.1871 9.98303 36.1124 9.18754 34.7879C8.39205 33.4634 7.9841 31.9423 8.01008 30.3974C8.01004 29.2453 8.23807 28.1045 8.68101 27.041C9.12395 25.9774 9.77304 25.012 10.5909 24.2004C11.4087 23.3889 12.379 22.7472 13.446 22.3125C14.513 21.8778 15.6555 21.6585 16.8076 21.6674H18.0001C18.5002 20.0714 19.4037 18.6315 20.6231 17.4868C21.8426 16.3422 23.3368 15.5316 24.9613 15.1334C26.5857 14.7352 28.2854 14.7629 29.896 15.2138C31.5066 15.6648 32.9736 16.5236 34.1551 17.7074C34.7077 18.2539 35.1913 18.8659 35.5951 19.5299" stroke="white" stroke-width="2.7" stroke-linecap="round" stroke-linejoin="round"/>
</svg>
