<svg width="54" height="54" viewBox="0 0 54 54" fill="none" xmlns="http://www.w3.org/2000/svg">
<path d="M32.3766 16.11C32.7034 14.4878 33.5807 13.0284 34.8599 11.9787C36.1392 10.9291 37.7418 10.3537 39.3966 10.35H39.9141C39.5701 11.177 39.3942 12.0643 39.3966 12.96C39.3991 14.7879 40.0989 16.546 41.3532 17.8756C42.6076 19.2052 44.3219 20.0061 46.1466 20.115C45.7401 21.1348 45.1078 22.0492 44.2972 22.7896C43.4867 23.53 42.5189 24.0772 41.4666 24.39" stroke="white" stroke-width="2.7" stroke-linecap="round" stroke-linejoin="round"/>
<path d="M34.6941 29.5425C34.7552 28.8889 35.0032 28.2667 35.4083 27.7501C35.8134 27.2336 36.3587 26.8446 36.9789 26.6295C37.5992 26.4145 38.2682 26.3825 38.9061 26.5373C39.5441 26.6922 40.124 27.0274 40.5766 27.5029C41.0292 27.9784 41.3353 28.5742 41.4585 29.219C41.5817 29.8638 41.5167 30.5304 41.2713 31.1393C41.0259 31.7481 40.6105 32.2735 40.0746 32.6527C39.5387 33.0318 38.905 33.2487 38.2491 33.2775H21" stroke="white" stroke-width="2.7" stroke-linecap="round" stroke-linejoin="round"/>
<path d="M24.2103 25.7849C24.3093 24.9158 24.7354 24.1169 25.4021 23.5507C26.0688 22.9844 26.9261 22.6931 27.7998 22.7361C28.6735 22.7791 29.4981 23.153 30.106 23.782C30.7139 24.411 31.0596 25.2478 31.0728 26.1224C31.0728 27.0295 30.7125 27.8994 30.0711 28.5407C29.4297 29.1821 28.5599 29.5424 27.6528 29.5424H20.9999" stroke="white" stroke-width="2.7" stroke-linecap="round" stroke-linejoin="round"/>
<path d="M24.7496 40.5C24.8106 41.1586 25.0612 41.7854 25.4711 42.3045C25.881 42.8235 26.4327 43.2126 27.0592 43.4245C27.6857 43.6364 28.3603 43.6622 29.0011 43.4985C29.6419 43.3349 30.2216 42.989 30.6698 42.5027C31.1181 42.0163 31.4157 41.4104 31.5266 40.7584C31.6376 40.1064 31.557 39.4362 31.2948 38.829C31.0326 38.2218 30.6 37.7036 30.0493 37.3373C29.4986 36.971 28.8535 36.7722 28.1921 36.765H21.2396C18.4999 36.765 15.6626 36.7691 12.9821 36C11.5296 35.4433 10.2828 34.4545 9.40974 33.1671C8.53669 31.8797 8.07944 30.3554 8.09964 28.8C8.09667 27.7207 8.30707 26.6515 8.71873 25.6537C9.1304 24.656 9.73521 23.7495 10.4984 22.9863C11.2616 22.2231 12.1681 21.6183 13.1658 21.2066C14.1636 20.795 15.2328 20.5846 16.3121 20.5875H17.4821C18.0239 18.9211 19.0301 17.4439 20.3826 16.3298C21.7351 15.2156 23.3775 14.5107 25.1169 14.298C26.8562 14.0853 28.6201 14.3737 30.2012 15.1291C31.7823 15.8846 33.1148 17.0757 34.0421 18.5625" stroke="white" stroke-width="2.7" stroke-linecap="round" stroke-linejoin="round"/>
</svg>
