<svg width="54" height="54" viewBox="0 0 54 54" fill="none" xmlns="http://www.w3.org/2000/svg">
<path d="M29.9687 29.6099C30.0253 29.0339 30.2477 28.4866 30.6089 28.0345C30.9702 27.5823 31.4549 27.2446 32.0042 27.0623C32.5535 26.8799 33.1439 26.8608 33.7039 27.0072C34.2638 27.1537 34.7693 27.4593 35.1591 27.8872C35.5488 28.315 35.8062 28.8468 35.8999 29.4179C35.9936 29.989 35.9196 30.5751 35.687 31.1051C35.4544 31.6351 35.0731 32.0862 34.5893 32.4039C34.1055 32.7216 33.54 32.8921 32.9612 32.8949H19" stroke="white" stroke-width="2.7" stroke-linecap="round" stroke-linejoin="round"/>
<path d="M20.8346 26.3475C20.9124 25.6075 21.261 24.9224 21.8134 24.4239C22.3659 23.9255 23.0831 23.6489 23.8271 23.6475C24.6208 23.6475 25.382 23.9627 25.9432 24.5239C26.5044 25.0851 26.8196 25.8463 26.8196 26.64C26.8196 27.4336 26.5044 28.1948 25.9432 28.756C25.382 29.3172 24.6208 29.6325 23.8271 29.6325H19" stroke="white" stroke-width="2.7" stroke-linecap="round" stroke-linejoin="round"/>
<path d="M30.0146 19.0575C31.1425 18.2639 32.5394 17.9507 33.8981 18.187C35.2568 18.4233 36.466 19.1897 37.2596 20.3175C38.0533 21.4453 38.3664 22.8423 38.1301 24.201C37.8938 25.5597 37.1275 26.7689 35.9996 27.5625" stroke="white" stroke-width="2.7" stroke-linecap="round" stroke-linejoin="round"/>
<path d="M32.9832 13.3875V10.35" stroke="white" stroke-width="2.7" stroke-linecap="round" stroke-linejoin="round"/>
<path d="M39.9814 30.2849L42.1414 32.4449" stroke="white" stroke-width="2.7" stroke-linecap="round" stroke-linejoin="round"/>
<path d="M42.884 23.2875H45.9215" stroke="white" stroke-width="2.7" stroke-linecap="round" stroke-linejoin="round"/>
<path d="M39.9814 16.29L42.1414 14.13" stroke="white" stroke-width="2.7" stroke-linecap="round" stroke-linejoin="round"/>
<path d="M30.7116 20.2499C30.3716 19.7114 29.9715 19.2132 29.5191 18.7649C28.5562 17.7903 27.3582 17.0806 26.0408 16.7044C24.7235 16.3281 23.3313 16.298 21.9989 16.6169C20.6665 16.9359 19.439 17.5931 18.4348 18.5252C17.4306 19.4572 16.6839 20.6324 16.2666 21.9374H15.2541C13.3565 21.9374 11.5366 22.6912 10.1948 24.0331C8.85295 25.3749 8.09912 27.1948 8.09912 29.0924C8.14826 30.228 8.48337 31.3328 9.07336 32.3043C9.66336 33.2758 10.4891 34.0826 11.4741 34.6499C13.8405 35.8284 16.5 35.9999 19.1241 35.9999H25.4241C26.0088 35.9884 26.584 36.1484 27.0787 36.4602C27.5734 36.772 27.9659 37.2219 28.2077 37.7543C28.4496 38.2867 28.5301 38.8783 28.4394 39.456C28.3487 40.0337 28.0907 40.5721 27.6974 41.0048C27.304 41.4375 26.7925 41.7454 26.2261 41.8906C25.6596 42.0358 25.063 42.0119 24.5101 41.8217C23.9571 41.6316 23.4719 41.2836 23.1145 40.8207C22.7572 40.3579 22.5432 39.8005 22.4991 39.2174" stroke="white" stroke-width="2.7" stroke-linecap="round" stroke-linejoin="round"/>
</svg>
