<svg width="54" height="54" viewBox="0 0 54 54" fill="none" xmlns="http://www.w3.org/2000/svg">
<path d="M28.0807 45.855C25.7614 45.8548 23.483 45.2437 21.4747 44.0834C19.4665 42.923 17.7992 41.2543 16.6406 39.245C15.482 37.2357 14.873 34.9568 14.8748 32.6374C14.8765 30.318 15.4891 28.04 16.6507 26.0325V26.0325L26.4607 9.00005C26.6273 8.71532 26.8656 8.47915 27.1518 8.31504C27.4379 8.15092 27.7621 8.06458 28.092 8.06458C28.4219 8.06458 28.746 8.15092 29.0322 8.31504C29.3184 8.47915 29.5566 8.71532 29.7232 9.00005L39.5332 25.9875C40.6959 27.9967 41.3084 30.2768 41.3092 32.5981C41.31 34.9193 40.699 37.1998 39.5378 39.2098C38.3765 41.2197 36.706 42.8881 34.6946 44.0468C32.6833 45.2056 30.402 45.8137 28.0807 45.81V45.855Z" stroke="white" stroke-width="2.7" stroke-linecap="round" stroke-linejoin="round"/>
<path d="M34.7411 30.5326C35.1329 31.9547 35.048 33.4661 34.4995 34.8354C33.9509 36.2048 32.9689 37.3567 31.7036 38.1151" stroke="white" stroke-width="2.7" stroke-linecap="round" stroke-linejoin="round"/>
</svg>
