<svg width="54" height="54" viewBox="0 0 54 54" fill="none" xmlns="http://www.w3.org/2000/svg">
<path d="M32.918 19.71C32.2035 19.7128 31.5011 19.5265 30.8819 19.1701C30.2626 18.8136 29.7487 18.2997 29.3923 17.6805C29.0359 17.0613 28.8496 16.3589 28.8523 15.6444C28.8551 14.9299 29.0468 14.2289 29.408 13.6125V13.6125L32.423 8.3925C32.4712 8.3032 32.5427 8.2286 32.6298 8.17661C32.7169 8.12462 32.8165 8.09717 32.918 8.09717C33.0195 8.09717 33.1191 8.12462 33.2062 8.17661C33.2933 8.2286 33.3648 8.3032 33.413 8.3925L36.428 13.6125C36.7892 14.2289 36.9809 14.9299 36.9837 15.6444C36.9864 16.3589 36.8001 17.0613 36.4437 17.6805C36.0872 18.2997 35.5733 18.8136 34.9541 19.1701C34.3349 19.5265 33.6325 19.7128 32.918 19.71V19.71Z" stroke="white" stroke-width="2.7225" stroke-linecap="round" stroke-linejoin="round"/>
<path d="M34.6945 45.8774C33.5811 45.8665 32.4899 45.5637 31.53 44.9993C30.5701 44.4349 29.7749 43.6287 29.2239 42.661C28.6729 41.6933 28.3853 40.5981 28.3898 39.4845C28.3943 38.371 28.6907 37.2781 29.2495 36.3149V36.3149L33.907 28.1249C33.9849 27.9843 34.099 27.867 34.2375 27.7854C34.3759 27.7037 34.5338 27.6606 34.6945 27.6606C34.8553 27.6606 35.0131 27.7037 35.1516 27.7854C35.2901 27.867 35.4042 27.9843 35.482 28.1249L40.207 36.3149C40.7686 37.2831 41.0651 38.3821 41.0666 39.5013C41.0681 40.6206 40.7746 41.7204 40.2157 42.69C39.6567 43.6597 38.852 44.4649 37.8827 45.0245C36.9134 45.584 35.8138 45.8782 34.6945 45.8774V45.8774Z" stroke="white" stroke-width="2.7225" stroke-linecap="round" stroke-linejoin="round"/>
<path d="M19.9576 34.5824C19.071 34.5791 18.2007 34.3439 17.4331 33.9004C16.6654 33.4569 16.0271 32.8204 15.5813 32.054C15.1356 31.2876 14.898 30.418 14.8921 29.5315C14.8862 28.6449 15.1121 27.7722 15.5476 26.9999V26.9999L19.3276 20.4074C19.3898 20.2949 19.4811 20.2011 19.5919 20.1358C19.7027 20.0705 19.829 20.036 19.9576 20.036C20.0862 20.036 20.2125 20.0705 20.3232 20.1358C20.434 20.2011 20.5253 20.2949 20.5876 20.4074L24.3676 26.9999C24.8182 27.7801 25.0535 28.6659 25.0493 29.5668C25.0452 30.4677 24.8018 31.3513 24.344 32.1272C23.8862 32.9031 23.2305 33.5435 22.444 33.9828C21.6574 34.4221 20.7683 34.6446 19.8676 34.6274L19.9576 34.5824Z" stroke="white" stroke-width="2.7225" stroke-linecap="round" stroke-linejoin="round"/>
</svg>
