<svg width="54" height="54" viewBox="0 0 54 54" fill="none" xmlns="http://www.w3.org/2000/svg">
<path d="M13 31.0742C13 29.4182 13.4516 27.5175 14.3549 25.3722C15.2582 23.2269 16.425 21.138 17.8552 19.1432C20.7909 15.2666 23.3502 12.3309 25.4956 10.3549L26.907 9C27.3774 9.48928 27.9043 9.94093 28.4689 10.3549C29.2405 11.1453 30.426 12.4438 32.0068 14.288C33.5876 16.1323 34.9613 17.7695 36.0904 19.275C37.4266 21.1756 38.5745 23.2269 39.4966 25.391C40.4187 27.5551 40.8892 29.4558 40.8892 31.093C40.8892 32.9749 40.5316 34.7627 39.7977 36.4752C39.0638 38.1877 38.0852 39.6743 36.8432 40.9164C35.6012 42.1584 34.1145 43.1558 32.3832 43.8897C30.6519 44.6236 28.8265 45 26.907 45C25.0251 45 23.2373 44.6424 21.5248 43.9273C19.8123 43.2122 18.3257 42.2525 17.0836 41.0104C15.8416 39.7872 14.8442 38.3006 14.1103 36.5881C13.3764 34.8756 13 33.0314 13 31.0742ZM17.253 25.5604C17.253 27.1223 17.5729 28.3643 18.2316 29.3053C18.8902 30.2274 19.8876 30.6979 21.2237 30.6979C22.5787 30.6979 23.5761 30.2274 24.2535 29.3053C24.9122 28.3832 25.2509 27.1411 25.2697 25.5604C25.2509 23.9796 24.9122 22.7376 24.2535 21.7967C23.5949 20.8745 22.5787 20.4041 21.2237 20.4041C19.8876 20.4041 18.8902 20.8745 18.2316 21.7967C17.5729 22.7376 17.253 23.9796 17.253 25.5604ZM20.2075 25.5604C20.2075 25.2781 20.2075 25.0523 20.2075 24.9017C20.2075 24.7512 20.2263 24.5442 20.2452 24.2807C20.264 24.0172 20.2828 23.8102 20.3393 23.6785C20.3957 23.5468 20.4334 23.3774 20.5086 23.2269C20.5839 23.0763 20.678 22.9446 20.7909 22.8881C20.9226 22.8129 21.0544 22.7752 21.2237 22.7752C21.4872 22.7752 21.6942 22.8505 21.8447 23.001C21.9953 23.1516 22.1082 23.3962 22.1647 23.7162C22.2211 24.0549 22.2588 24.3183 22.2776 24.563C22.2964 24.8076 22.2964 25.1275 22.2964 25.5416C22.2964 25.9744 22.2964 26.2943 22.2776 26.5201C22.2588 26.7459 22.2211 27.0282 22.1647 27.367C22.1082 27.6869 21.9953 27.9315 21.8447 28.0821C21.6942 28.2326 21.4872 28.3079 21.2237 28.3079C21.0544 28.3079 20.9226 28.2703 20.7909 28.195C20.6592 28.1197 20.5651 28.0068 20.5086 27.8562C20.4334 27.7057 20.3769 27.5363 20.3393 27.4046C20.3016 27.254 20.264 27.047 20.2452 26.8024C20.2263 26.5389 20.2075 26.3319 20.2075 26.2002C20.2075 26.0685 20.2075 25.8427 20.2075 25.5604ZM21.3178 40.1448H23.8019L33.1924 19.9336H30.6519L21.3178 40.1448ZM29.4098 34.518C29.4286 36.0988 29.7862 37.3408 30.4449 38.2818C31.1035 39.2039 32.1197 39.6743 33.4558 39.6743C34.8108 39.6743 35.8082 39.2039 36.4668 38.2818C37.1255 37.3596 37.4454 36.0988 37.4642 34.518C37.4454 32.9373 37.1255 31.6952 36.4668 30.7731C35.8082 29.851 34.8108 29.3806 33.4558 29.3806C32.1197 29.3806 31.1035 29.851 30.4449 30.7731C29.7674 31.6952 29.4286 32.9373 29.4098 34.518ZM32.3644 34.518C32.3644 34.0852 32.3644 33.7653 32.3832 33.5395C32.402 33.3136 32.4396 33.0314 32.4961 32.6926C32.5525 32.3539 32.6654 32.1281 32.816 31.9775C32.9665 31.827 33.1736 31.7517 33.437 31.7517C33.6064 31.7517 33.7569 31.7893 33.8887 31.8646C34.0204 31.9399 34.1145 32.0528 34.1898 32.2222C34.265 32.3915 34.3215 32.5421 34.3779 32.6738C34.4344 32.8055 34.4532 33.0125 34.472 33.276L34.4909 33.8782V34.518V35.1767L34.472 35.7789L34.3779 36.3811L34.1898 36.8327L33.8887 37.1903L33.437 37.3032C33.1736 37.3032 32.9665 37.2279 32.816 37.0774C32.6654 36.9268 32.5525 36.6822 32.4961 36.3623C32.4396 36.0235 32.402 35.7412 32.3832 35.5154C32.3644 35.2896 32.3644 34.9509 32.3644 34.518Z" fill="white"/>
</svg>
