<svg width="54" height="54" viewBox="0 0 54 54" fill="none" xmlns="http://www.w3.org/2000/svg">
<path d="M29.5 22.9575C29.8952 22.3273 30.4244 21.792 31.05 21.3895C31.6755 20.9871 32.3821 20.7274 33.1194 20.6291C33.8568 20.5307 34.6067 20.596 35.3159 20.8204C36.0251 21.0447 36.6762 21.4226 37.2227 21.9272C37.7693 22.4317 38.198 23.0505 38.4783 23.7395C38.7586 24.4285 38.8836 25.1708 38.8444 25.9137C38.8053 26.6565 38.6029 27.3815 38.2517 28.0373C37.9005 28.693 37.4091 29.2633 36.8125 29.7075" stroke="white" stroke-width="2.7" stroke-linecap="round" stroke-linejoin="round"/>
<path d="M31.1883 16.2075L30.3108 13.35" stroke="white" stroke-width="2.7" stroke-linecap="round" stroke-linejoin="round"/>
<path d="M42.5728 30.0449L45.2053 31.4624" stroke="white" stroke-width="2.7" stroke-linecap="round" stroke-linejoin="round"/>
<path d="M43.2932 22.665L46.1507 21.7875" stroke="white" stroke-width="2.7" stroke-linecap="round" stroke-linejoin="round"/>
<path d="M38.5681 16.9274L39.9856 14.2949" stroke="white" stroke-width="2.7" stroke-linecap="round" stroke-linejoin="round"/>
<path d="M34.0004 40.1924C35.2748 39.8887 36.4169 39.1813 37.2563 38.1755C38.0958 37.1697 38.5876 35.9195 38.6585 34.6114C38.7293 33.3032 38.3754 32.0072 37.6495 30.9166C36.9236 29.8261 35.8646 28.9994 34.6304 28.5599C33.5418 28.2199 32.3848 28.1612 31.2673 28.3894C30.1499 28.6176 29.1085 29.1253 28.2404 29.8649C26.6766 31.3609 25.7219 32.9181 24.3254 34.9949C21.6929 38.9099 16.5179 41.7449 11.9279 39.3374C10.83 38.7702 9.91287 37.9067 9.28057 36.8449C8.64826 35.7831 8.32604 34.5655 8.35041 33.3299C8.35041 31.4681 9.09001 29.6825 10.4065 28.366C11.723 27.0495 13.5086 26.3099 15.3704 26.3099H16.3604C16.7661 25.0279 17.4941 23.8716 18.4748 22.9517C19.4554 22.0318 20.6559 21.3792 21.9611 21.0562C23.2664 20.7333 24.6327 20.751 25.9292 21.1075C27.2256 21.464 28.4088 22.1475 29.3654 23.0924C29.8107 23.5412 30.2032 24.0395 30.5354 24.5774" stroke="white" stroke-width="2.7" stroke-linecap="round" stroke-linejoin="round"/>
</svg>
