<svg width="54" height="54" viewBox="0 0 54 54" fill="none" xmlns="http://www.w3.org/2000/svg">
<path d="M37.935 41.2424C39.3958 40.8692 40.6995 40.0399 41.6567 38.8749C42.6138 37.71 43.1746 36.2702 43.2574 34.7647C43.3402 33.2593 42.9407 31.7667 42.1171 30.5038C41.2935 29.2409 40.0886 28.2736 38.6775 27.7424C37.41 27.343 36.0618 27.2717 34.7593 27.5354C33.4567 27.799 32.2424 28.389 31.23 29.2499C29.4421 31.0112 28.0817 33.2324 26.73 35.2349C23.6925 39.7349 17.73 43.1099 12.3075 40.2974C11.0081 39.6404 9.92242 38.6272 9.17738 37.3762C8.43233 36.1252 8.05866 34.6879 8.10002 33.2324C8.10001 31.0642 8.9598 28.9844 10.4909 27.4492C12.0219 25.9139 14.0993 25.0484 16.2675 25.0424H17.4375C17.9093 23.5492 18.757 22.2022 19.8993 21.131C21.0416 20.0597 22.4401 19.3001 23.9605 18.9251C25.481 18.5501 27.0723 18.5722 28.5817 18.9894C30.0911 19.4066 31.468 20.2048 32.58 21.3074C33.0977 21.8288 33.551 22.4105 33.93 23.0399" stroke="white" stroke-width="2.7" stroke-linecap="round" stroke-linejoin="round"/>
<path d="M41.2652 28.8449C42.3171 28.5437 43.285 28.0031 44.093 27.2653C44.9011 26.5275 45.5273 25.6127 45.9227 24.5924C44.8059 24.5144 43.7232 24.1745 42.7621 23.6004C41.8011 23.0263 40.9886 22.2339 40.3906 21.2876C39.7925 20.3412 39.4256 19.2673 39.3196 18.1529C39.2136 17.0384 39.3714 15.9146 39.7802 14.8724H39.2852C37.6364 14.8761 36.0393 15.449 34.7643 16.4945C33.4892 17.54 32.6144 18.9937 32.2877 20.6099" stroke="white" stroke-width="2.7" stroke-linecap="round" stroke-linejoin="round"/>
</svg>
