<svg width="54" height="54" viewBox="0 0 54 54" fill="none" xmlns="http://www.w3.org/2000/svg">
<g clip-path="url(#clip0_672_2742)">
<path d="M30.2195 20.0575C31.0855 19.438 32.1247 19.1073 33.1895 19.1125C33.867 19.1095 34.5383 19.2407 35.1648 19.4986C35.7913 19.7565 36.3604 20.1359 36.8395 20.615C37.3185 21.094 37.698 21.6632 37.9558 22.2897C38.2137 22.9162 38.345 23.5875 38.342 24.265C38.3471 25.1045 38.1443 25.9321 37.7517 26.6742C37.3591 27.4162 36.7889 28.0495 36.092 28.5175" stroke="white" stroke-width="2.7" stroke-linecap="round" stroke-linejoin="round"/>
<path d="M33.1904 14.3875V11.35" stroke="white" stroke-width="2.7" stroke-linecap="round" stroke-linejoin="round"/>
<path d="M40.1875 31.24L42.325 33.4" stroke="white" stroke-width="2.7" stroke-linecap="round" stroke-linejoin="round"/>
<path d="M43.0669 24.265H46.1044" stroke="white" stroke-width="2.7" stroke-linecap="round" stroke-linejoin="round"/>
<path d="M40.1875 17.29L42.325 15.13" stroke="white" stroke-width="2.7" stroke-linecap="round" stroke-linejoin="round"/>
<path d="M15.9998 37C14.586 37.0726 13.1788 36.7616 11.9273 36.1C10.8325 35.5172 9.91939 34.644 9.2883 33.5763C8.6572 32.5086 8.33248 31.2877 8.34978 30.0475C8.34978 28.1558 9.10124 26.3417 10.4388 25.0041C11.7764 23.6665 13.5906 22.915 15.4823 22.915H16.4948C16.8978 21.6031 17.6338 20.418 18.6311 19.4753C19.6285 18.5325 20.853 17.8643 22.1855 17.5357C23.518 17.2071 24.9129 17.2294 26.2342 17.6004C27.5554 17.9714 28.7581 18.6784 29.7248 19.6525C30.1827 20.1041 30.5832 20.6104 30.9173 21.16" stroke="white" stroke-width="2.7" stroke-linecap="round" stroke-linejoin="round"/>
<path d="M28.8726 30.9602C28.5688 30.9633 28.2696 30.8854 28.0059 30.7345C27.7422 30.5835 27.5234 30.365 27.3722 30.1015C27.2209 29.8379 27.1426 29.5389 27.1453 29.235C27.1481 28.9312 27.2317 28.6335 27.3876 28.3727L28.6701 26.1227C28.6919 26.0854 28.7231 26.0544 28.7606 26.0329C28.7981 26.0113 28.8406 26 28.8839 26C28.9271 26 28.9696 26.0113 29.0071 26.0329C29.0446 26.0544 29.0758 26.0854 29.0976 26.1227L30.3801 28.3727C30.5297 28.6363 30.6075 28.9346 30.6058 29.2376C30.604 29.5407 30.5228 29.838 30.3703 30.0999C30.2177 30.3618 29.9991 30.579 29.7363 30.73C29.4735 30.881 29.1757 30.9603 28.8726 30.9602Z" stroke="white" stroke-width="1.6875" stroke-linecap="round" stroke-linejoin="round"/>
<path d="M29.6152 42.0978C29.1482 42.0784 28.694 41.9391 28.2964 41.6933C27.8988 41.4475 27.5712 41.1034 27.3451 40.6942C27.1191 40.2851 27.0022 39.8246 27.0057 39.3571C27.0092 38.8897 27.133 38.431 27.3652 38.0253L29.3902 34.5378C29.4244 34.482 29.4724 34.4358 29.5295 34.4038C29.5866 34.3718 29.651 34.355 29.7165 34.355C29.782 34.355 29.8464 34.3718 29.9035 34.4038C29.9606 34.4358 30.0086 34.482 30.0427 34.5378L32.0677 38.0253C32.3041 38.4392 32.4276 38.908 32.426 39.3846C32.4244 39.8613 32.2976 40.3291 32.0585 40.7414C31.8193 41.1537 31.476 41.496 31.0631 41.734C30.6501 41.9721 30.1819 42.0975 29.7052 42.0978H29.6152Z" stroke="white" stroke-width="1.6875" stroke-linecap="round" stroke-linejoin="round"/>
<path d="M23.3604 37.3052C22.9884 37.2821 22.628 37.1669 22.3115 36.9701C21.995 36.7732 21.7324 36.5008 21.5473 36.1773C21.3621 35.8539 21.2602 35.4895 21.2507 35.1169C21.2412 34.7443 21.3244 34.3752 21.4929 34.0427L23.0904 31.2527C23.1184 31.2061 23.158 31.1676 23.2053 31.1408C23.2526 31.114 23.306 31.1 23.3604 31.1C23.4147 31.1 23.4682 31.114 23.5155 31.1408C23.5628 31.1676 23.6024 31.2061 23.6304 31.2527L25.2279 34.0427C25.3963 34.3752 25.4795 34.7443 25.47 35.1169C25.4605 35.4895 25.3586 35.8539 25.1735 36.1773C24.9883 36.5008 24.7257 36.7732 24.4092 36.9701C24.0928 37.1669 23.7324 37.2821 23.3604 37.3052Z" stroke="white" stroke-width="1.6875" stroke-linecap="round" stroke-linejoin="round"/>
</g>
<defs>
<clipPath id="clip0_672_2742">
<rect x="7" y="10" width="40.455" height="33.57" rx="11.25" fill="white"/>
</clipPath>
</defs>
</svg>
