<svg width="54" height="54" viewBox="0 0 54 54" fill="none" xmlns="http://www.w3.org/2000/svg">
<path d="M31.3188 32.13C31.015 32.1331 30.7158 32.0552 30.452 31.9043C30.1883 31.7533 29.9696 31.5348 29.8183 31.2713C29.6671 31.0077 29.5888 30.7087 29.5915 30.4048C29.5942 30.101 29.6779 29.8033 29.8338 29.5425V29.5425L31.1163 27.2925C31.1381 27.2552 31.1693 27.2242 31.2068 27.2027C31.2443 27.1811 31.2868 27.1698 31.3301 27.1698C31.3733 27.1698 31.4158 27.1811 31.4533 27.2027C31.4908 27.2242 31.522 27.2552 31.5438 27.2925L32.8263 29.5425C32.9759 29.8061 33.0537 30.1044 33.0519 30.4074C33.0502 30.7105 32.969 31.0078 32.8164 31.2697C32.6639 31.5316 32.4453 31.7488 32.1825 31.8998C31.9197 32.0508 31.6219 32.1301 31.3188 32.13Z" stroke="white" stroke-width="1.6875" stroke-linecap="round" stroke-linejoin="round"/>
<path d="M32.0615 43.2676C31.5945 43.2482 31.1403 43.1089 30.7427 42.8631C30.3451 42.6173 30.0175 42.2732 29.7914 41.864C29.5654 41.4549 29.4485 40.9944 29.452 40.5269C29.4555 40.0595 29.5793 39.6008 29.8115 39.1951V39.1951L31.8365 35.7076C31.8707 35.6518 31.9187 35.6056 31.9758 35.5736C32.0329 35.5416 32.0973 35.5248 32.1628 35.5248C32.2283 35.5248 32.2926 35.5416 32.3498 35.5736C32.4069 35.6056 32.4548 35.6518 32.489 35.7076L34.514 39.1951C34.7504 39.609 34.8739 40.0778 34.8723 40.5544C34.8707 41.0311 34.7439 41.4989 34.5047 41.9112C34.2656 42.3235 33.9223 42.6658 33.5094 42.9038C33.0964 43.1419 32.6282 43.2673 32.1515 43.2676H32.0615Z" stroke="white" stroke-width="1.6875" stroke-linecap="round" stroke-linejoin="round"/>
<path d="M25.8065 38.475C25.4346 38.4519 25.0741 38.3367 24.7577 38.1399C24.4412 37.943 24.1786 37.6706 23.9934 37.3471C23.8083 37.0237 23.7064 36.6593 23.6969 36.2867C23.6874 35.9141 23.7706 35.545 23.939 35.2125V35.2125L25.5365 32.4225C25.5645 32.3759 25.6041 32.3374 25.6514 32.3106C25.6988 32.2838 25.7522 32.2698 25.8065 32.2698C25.8609 32.2698 25.9143 32.2838 25.9617 32.3106C26.009 32.3374 26.0485 32.3759 26.0765 32.4225L27.674 35.2125C27.8425 35.545 27.9257 35.9141 27.9162 36.2867C27.9067 36.6593 27.8048 37.0237 27.6196 37.3471C27.4345 37.6706 27.1719 37.943 26.8554 38.1399C26.5389 38.3367 26.1785 38.4519 25.8065 38.475V38.475Z" stroke="white" stroke-width="1.6875" stroke-linecap="round" stroke-linejoin="round"/>
<path d="M37.9116 36.72C39.7328 36.3273 41.3252 35.2311 42.3422 33.6701C43.3591 32.109 43.7183 30.2095 43.3415 28.3849C42.9647 26.5603 41.8825 24.9584 40.3303 23.9279C38.7782 22.8973 36.8819 22.5216 35.0541 22.8825" stroke="white" stroke-width="2.7" stroke-linecap="round" stroke-linejoin="round"/>
<path d="M17.9995 36.5849C16.0089 36.9668 13.9476 36.6655 12.1495 35.7299C10.8933 35.0464 9.85033 34.0291 9.13566 32.7904C8.42099 31.5516 8.06243 30.1395 8.09954 28.7099C8.09954 26.5437 8.96004 24.4663 10.4917 22.9346C12.0234 21.4029 14.1009 20.5424 16.267 20.5424H17.437C17.8775 19.0277 18.7083 17.6553 19.8463 16.5629C20.9842 15.4704 22.3893 14.6962 23.9208 14.3179C25.4522 13.9396 27.0562 13.9705 28.5719 14.4074C30.0877 14.8443 31.4619 15.672 32.557 16.8074C33.0748 17.3288 33.528 17.9104 33.907 18.5399" stroke="white" stroke-width="2.7" stroke-linecap="round" stroke-linejoin="round"/>
<path d="M41.242 24.3449C42.2924 24.0406 43.2587 23.4988 44.0663 22.7614C44.8739 22.0241 45.5012 21.1109 45.8995 20.0924C44.7827 20.0144 43.7 19.6745 42.7389 19.1004C41.7779 18.5263 40.9655 17.7339 40.3674 16.7876C39.7693 15.8412 39.4025 14.7673 39.2964 13.6529C39.1904 12.5384 39.3482 11.4146 39.757 10.3724H39.262C37.6132 10.3761 36.0161 10.949 34.7411 11.9945C33.466 13.04 32.5912 14.4937 32.2645 16.1099" stroke="white" stroke-width="2.7" stroke-linecap="round" stroke-linejoin="round"/>
</svg>
