<svg width="54" height="54" viewBox="0 0 54 54" fill="none" xmlns="http://www.w3.org/2000/svg">
<path d="M23.1972 33.6374C24.0422 33.6374 24.7272 32.9524 24.7272 32.1074C24.7272 31.2624 24.0422 30.5774 23.1972 30.5774C22.3522 30.5774 21.6672 31.2624 21.6672 32.1074C21.6672 32.9524 22.3522 33.6374 23.1972 33.6374Z" stroke="white" stroke-width="1.35" stroke-linecap="round" stroke-linejoin="round"/>
<path d="M28.9343 38.8575C29.7793 38.8575 30.4643 38.1725 30.4643 37.3275C30.4643 36.4825 29.7793 35.7975 28.9343 35.7975C28.0893 35.7975 27.4043 36.4825 27.4043 37.3275C27.4043 38.1725 28.0893 38.8575 28.9343 38.8575Z" stroke="white" stroke-width="1.35" stroke-linecap="round" stroke-linejoin="round"/>
<path d="M38.9918 33.0075C39.4889 33.0075 39.8918 32.6046 39.8918 32.1075C39.8918 31.6105 39.4889 31.2075 38.9918 31.2075C38.4947 31.2075 38.0918 31.6105 38.0918 32.1075C38.0918 32.6046 38.4947 33.0075 38.9918 33.0075Z" fill="white"/>
<path d="M33.9073 38.6774C34.4044 38.6774 34.8073 38.2745 34.8073 37.7774C34.8073 37.2804 34.4044 36.8774 33.9073 36.8774C33.4103 36.8774 33.0073 37.2804 33.0073 37.7774C33.0073 38.2745 33.4103 38.6774 33.9073 38.6774Z" fill="white"/>
<path d="M28.8009 43.1551C29.2979 43.1551 29.7009 42.7522 29.7009 42.2551C29.7009 41.758 29.2979 41.3551 28.8009 41.3551C28.3038 41.3551 27.9009 41.758 27.9009 42.2551C27.9009 42.7522 28.3038 43.1551 28.8009 43.1551Z" fill="white"/>
<path d="M23.0616 38.6774C23.5587 38.6774 23.9616 38.2745 23.9616 37.7774C23.9616 37.2804 23.5587 36.8774 23.0616 36.8774C22.5646 36.8774 22.1616 37.2804 22.1616 37.7774C22.1616 38.2745 22.5646 38.6774 23.0616 38.6774Z" fill="white"/>
<path d="M28.1703 33.0075C28.6673 33.0075 29.0703 32.6046 29.0703 32.1075C29.0703 31.6105 28.6673 31.2075 28.1703 31.2075C27.6732 31.2075 27.2703 31.6105 27.2703 32.1075C27.2703 32.6046 27.6732 33.0075 28.1703 33.0075Z" fill="white"/>
<path d="M17.9771 33.0075C18.4742 33.0075 18.8771 32.6046 18.8771 32.1075C18.8771 31.6105 18.4742 31.2075 17.9771 31.2075C17.4801 31.2075 17.0771 31.6105 17.0771 32.1075C17.0771 32.6046 17.4801 33.0075 17.9771 33.0075Z" fill="white"/>
<path d="M33.7727 33.6374C34.6177 33.6374 35.3027 32.9524 35.3027 32.1074C35.3027 31.2624 34.6177 30.5774 33.7727 30.5774C32.9277 30.5774 32.2427 31.2624 32.2427 32.1074C32.2427 32.9524 32.9277 33.6374 33.7727 33.6374Z" stroke="white" stroke-width="1.35" stroke-linecap="round" stroke-linejoin="round"/>
<path d="M37.9346 36.7201C39.3954 36.3469 40.6992 35.5175 41.6563 34.3526C42.6135 33.1877 43.1742 31.7478 43.257 30.2424C43.3398 28.737 42.9403 27.2443 42.1167 25.9815C41.2931 24.7186 40.0882 23.7513 38.6771 23.2201C37.519 22.8287 36.2808 22.7359 35.0771 22.9501" stroke="white" stroke-width="2.6325" stroke-linecap="round" stroke-linejoin="round"/>
<path d="M18.0001 36.6074C16.0069 36.9824 13.9455 36.6732 12.1501 35.7299C10.888 35.0515 9.83902 34.0359 9.11998 32.7965C8.40095 31.5571 8.04009 30.1423 8.0776 28.7099C8.07464 27.6355 8.28372 26.571 8.69285 25.5774C9.10198 24.5839 9.70312 23.6809 10.4618 22.9201C11.2206 22.1593 12.1219 21.5556 13.1143 21.1438C14.1067 20.7319 15.1706 20.5199 16.2451 20.5199H17.4151C17.8922 18.8036 18.8679 17.2675 20.2187 16.1061C21.5695 14.9447 23.2345 14.2103 25.0029 13.9959C26.7714 13.7814 28.5637 14.0966 30.1529 14.9015C31.7421 15.7065 33.0566 16.9649 33.9301 18.5174" stroke="white" stroke-width="2.6325" stroke-linecap="round" stroke-linejoin="round"/>
<path d="M41.2646 24.345C42.3158 24.0352 43.2821 23.4889 44.0894 22.7479C44.8968 22.0069 45.5237 21.0908 45.9221 20.07C44.8054 19.9919 43.7226 19.6521 42.7616 19.0779C41.8005 18.5038 40.9881 17.7115 40.39 16.7651C39.792 15.8187 39.4251 14.7449 39.319 13.6304C39.213 12.5159 39.3708 11.3922 39.7796 10.35H39.2846C37.6319 10.3484 36.0296 10.919 34.7499 11.9649C33.4702 13.0108 32.5921 14.4675 32.2646 16.0875" stroke="white" stroke-width="2.6325" stroke-linecap="round" stroke-linejoin="round"/>
</svg>
