<svg width="54" height="54" viewBox="0 0 54 54" fill="none" xmlns="http://www.w3.org/2000/svg">
<g clip-path="url(#clip0_1_3030)">
<path d="M30.2195 20.0575C31.0855 19.438 32.1247 19.1073 33.1895 19.1125C33.867 19.1095 34.5383 19.2407 35.1648 19.4986C35.7913 19.7565 36.3604 20.1359 36.8395 20.615C37.3185 21.094 37.698 21.6632 37.9558 22.2897C38.2137 22.9162 38.345 23.5875 38.342 24.265C38.3471 25.1045 38.1443 25.9321 37.7517 26.6742C37.3591 27.4162 36.7889 28.0495 36.092 28.5175" stroke="white" stroke-width="2.7" stroke-linecap="round" stroke-linejoin="round"/>
<path d="M33.1904 14.3875V11.35" stroke="white" stroke-width="2.7" stroke-linecap="round" stroke-linejoin="round"/>
<path d="M40.1875 31.24L42.325 33.4" stroke="white" stroke-width="2.7" stroke-linecap="round" stroke-linejoin="round"/>
<path d="M43.0669 24.265H46.1044" stroke="white" stroke-width="2.7" stroke-linecap="round" stroke-linejoin="round"/>
<path d="M40.1875 17.29L42.325 15.13" stroke="white" stroke-width="2.7" stroke-linecap="round" stroke-linejoin="round"/>
<path d="M15.9998 37C14.586 37.0726 13.1788 36.7616 11.9273 36.1C10.8325 35.5172 9.91939 34.644 9.2883 33.5763C8.6572 32.5086 8.33248 31.2877 8.34978 30.0475C8.34978 28.1558 9.10124 26.3417 10.4388 25.0041C11.7764 23.6665 13.5906 22.915 15.4823 22.915H16.4948C16.8978 21.6031 17.6338 20.418 18.6311 19.4753C19.6285 18.5325 20.853 17.8643 22.1855 17.5357C23.518 17.2071 24.9129 17.2294 26.2342 17.6004C27.5554 17.9714 28.7581 18.6784 29.7248 19.6525C30.1827 20.1041 30.5832 20.6104 30.9173 21.16" stroke="white" stroke-width="2.7" stroke-linecap="round" stroke-linejoin="round"/>
<path d="M22.9969 34.2324C23.7176 34.2324 24.3019 33.6482 24.3019 32.9274C24.3019 32.2067 23.7176 31.6224 22.9969 31.6224C22.2762 31.6224 21.6919 32.2067 21.6919 32.9274C21.6919 33.6482 22.2762 34.2324 22.9969 34.2324Z" stroke="white" stroke-width="1.35" stroke-linecap="round" stroke-linejoin="round"/>
<path d="M27.8792 38.6649C28.6 38.6649 29.1842 38.0807 29.1842 37.3599C29.1842 36.6392 28.6 36.0549 27.8792 36.0549C27.1585 36.0549 26.5742 36.6392 26.5742 37.3599C26.5742 38.0807 27.1585 38.6649 27.8792 38.6649Z" stroke="white" stroke-width="1.35" stroke-linecap="round" stroke-linejoin="round"/>
<path d="M36.4522 33.8275C36.9493 33.8275 37.3522 33.4245 37.3522 32.9275C37.3522 32.4304 36.9493 32.0275 36.4522 32.0275C35.9552 32.0275 35.5522 32.4304 35.5522 32.9275C35.5522 33.4245 35.9552 33.8275 36.4522 33.8275Z" fill="white"/>
<path d="M32.1095 38.665C32.6065 38.665 33.0095 38.262 33.0095 37.765C33.0095 37.2679 32.6065 36.865 32.1095 36.865C31.6124 36.865 31.2095 37.2679 31.2095 37.765C31.2095 38.262 31.6124 38.665 32.1095 38.665Z" fill="white"/>
<path d="M27.7677 42.445C28.2647 42.445 28.6677 42.0421 28.6677 41.545C28.6677 41.048 28.2647 40.645 27.7677 40.645C27.2706 40.645 26.8677 41.048 26.8677 41.545C26.8677 42.0421 27.2706 42.445 27.7677 42.445Z" fill="white"/>
<path d="M22.8841 38.665C23.3812 38.665 23.7841 38.262 23.7841 37.765C23.7841 37.2679 23.3812 36.865 22.8841 36.865C22.3871 36.865 21.9841 37.2679 21.9841 37.765C21.9841 38.262 22.3871 38.665 22.8841 38.665Z" fill="white"/>
<path d="M27.2271 33.8275C27.7242 33.8275 28.1271 33.4245 28.1271 32.9275C28.1271 32.4304 27.7242 32.0275 27.2271 32.0275C26.7301 32.0275 26.3271 32.4304 26.3271 32.9275C26.3271 33.4245 26.7301 33.8275 27.2271 33.8275Z" fill="white"/>
<path d="M18.5423 33.8275C19.0394 33.8275 19.4423 33.4245 19.4423 32.9275C19.4423 32.4304 19.0394 32.0275 18.5423 32.0275C18.0453 32.0275 17.6423 32.4304 17.6423 32.9275C17.6423 33.4245 18.0453 33.8275 18.5423 33.8275Z" fill="white"/>
<path d="M31.9969 34.2324C32.7176 34.2324 33.3019 33.6482 33.3019 32.9274C33.3019 32.2067 32.7176 31.6224 31.9969 31.6224C31.2762 31.6224 30.6919 32.2067 30.6919 32.9274C30.6919 33.6482 31.2762 34.2324 31.9969 34.2324Z" stroke="white" stroke-width="1.35" stroke-linecap="round" stroke-linejoin="round"/>
</g>
<defs>
<clipPath id="clip0_1_3030">
<rect x="7" y="10" width="40.455" height="33.57" rx="11.25" fill="white"/>
</clipPath>
</defs>
</svg>
