<svg width="54" height="54" viewBox="0 0 54 54" fill="none" xmlns="http://www.w3.org/2000/svg">
<path d="M27.9666 10.575V26.5949" stroke="white" stroke-width="2.655" stroke-linecap="round" stroke-linejoin="round"/>
<path d="M32.5111 12.5775L27.9661 17.145L23.3986 12.5775" stroke="white" stroke-width="2.655" stroke-linecap="round" stroke-linejoin="round"/>
<path d="M30.4867 8.07751L27.9667 10.62L25.4242 8.07751" stroke="white" stroke-width="2.655" stroke-linecap="round" stroke-linejoin="round"/>
<path d="M13.77 18.8326L27.63 26.8426" stroke="white" stroke-width="2.655" stroke-linecap="round" stroke-linejoin="round"/>
<path d="M17.7745 15.885L19.4395 22.1175L13.2295 23.7825" stroke="white" stroke-width="2.655" stroke-linecap="round" stroke-linejoin="round"/>
<path d="M12.8695 15.39L13.792 18.855L10.327 19.7775" stroke="white" stroke-width="2.655" stroke-linecap="round" stroke-linejoin="round"/>
<path d="M13.8141 35.2576L27.6966 27.2476" stroke="white" stroke-width="2.655" stroke-linecap="round" stroke-linejoin="round"/>
<path d="M13.2737 30.3075L19.5062 31.9725L17.8187 38.205" stroke="white" stroke-width="2.655" stroke-linecap="round" stroke-linejoin="round"/>
<path d="M10.3711 34.3126L13.8586 35.2351L12.9361 38.7001" stroke="white" stroke-width="2.655" stroke-linecap="round" stroke-linejoin="round"/>
<path d="M28.0808 43.425V27.405" stroke="white" stroke-width="2.655" stroke-linecap="round" stroke-linejoin="round"/>
<path d="M23.5126 41.4226L28.0576 36.8551L32.6251 41.4226" stroke="white" stroke-width="2.655" stroke-linecap="round" stroke-linejoin="round"/>
<path d="M25.5387 45.9225L28.0587 43.38L30.6237 45.9225" stroke="white" stroke-width="2.655" stroke-linecap="round" stroke-linejoin="round"/>
<path d="M42.255 35.1675L28.395 27.1575" stroke="white" stroke-width="2.655" stroke-linecap="round" stroke-linejoin="round"/>
<path d="M38.2492 38.1149L36.5842 31.8824L42.8167 30.2174" stroke="white" stroke-width="2.655" stroke-linecap="round" stroke-linejoin="round"/>
<path d="M43.1559 38.61L42.2334 35.145L45.6984 34.2225" stroke="white" stroke-width="2.655" stroke-linecap="round" stroke-linejoin="round"/>
<path d="M42.2093 18.7427L28.3268 26.7527" stroke="white" stroke-width="2.655" stroke-linecap="round" stroke-linejoin="round"/>
<path d="M42.7482 23.6925L36.5157 22.0275L38.2032 15.795" stroke="white" stroke-width="2.655" stroke-linecap="round" stroke-linejoin="round"/>
<path d="M45.6524 19.6875L42.1649 18.765L43.1099 15.3" stroke="white" stroke-width="2.655" stroke-linecap="round" stroke-linejoin="round"/>
</svg>
