<svg width="54" height="54" viewBox="0 0 54 54" fill="none" xmlns="http://www.w3.org/2000/svg">
<path d="M23.917 29.475H16.177C15.9329 29.4854 15.6911 29.4233 15.4821 29.2965C15.2732 29.1698 15.1065 28.984 15.003 28.7626C14.8995 28.5412 14.8639 28.2941 14.9007 28.0525C14.9374 27.8109 15.0449 27.5856 15.2095 27.405L32.7595 8.54995C32.9236 8.25158 33.1995 8.03062 33.5265 7.93568C33.8536 7.84074 34.2049 7.8796 34.5033 8.0437C34.8016 8.2078 35.0226 8.48371 35.1175 8.81073C35.2125 9.13774 35.1736 9.48908 35.0095 9.78745L29.767 23.9625" stroke="white" stroke-width="2.745" stroke-linecap="round" stroke-linejoin="round"/>
<path d="M30.059 24.525H37.799C38.0432 24.5207 38.2834 24.5876 38.4904 24.7174C38.6973 24.8471 38.862 25.0343 38.9645 25.256C39.0671 25.4777 39.1029 25.7244 39.0678 25.9661C39.0326 26.2079 38.9279 26.4341 38.7665 26.6175L21.2165 45.54C21.1338 45.6877 21.0228 45.8177 20.8898 45.9225C20.7568 46.0274 20.6045 46.105 20.4415 46.1509C20.2786 46.1969 20.1081 46.2103 19.94 46.1904C19.7718 46.1705 19.6093 46.1177 19.4615 46.035C19.3138 45.9522 19.1838 45.8412 19.079 45.7082C18.9741 45.5753 18.8965 45.423 18.8505 45.26C18.8046 45.097 18.7912 44.9266 18.8111 44.7584C18.831 44.5903 18.8838 44.4277 18.9665 44.28L24.0965 30.105" stroke="white" stroke-width="2.745" stroke-linecap="round" stroke-linejoin="round"/>
</svg>
