<svg width="54" height="54" viewBox="0 0 54 54" fill="none" xmlns="http://www.w3.org/2000/svg">
<path d="M37.9346 36.7423C39.7559 36.3496 41.3483 35.2535 42.3652 33.6924C43.3822 32.1314 43.7413 30.2318 43.3646 28.4072C42.9878 26.5826 41.9055 24.9807 40.3534 23.9502C38.8013 22.9197 36.9049 22.544 35.0771 22.9048" stroke="white" stroke-width="2.7" stroke-linecap="round" stroke-linejoin="round"/>
<path d="M18 36.6074C16.0071 36.9933 13.9421 36.6836 12.15 35.7299C10.887 35.0545 9.83827 34.0389 9.12252 32.7983C8.40676 31.5577 8.05258 30.1414 8.10004 28.7099C8.10598 26.5456 8.96839 24.4716 10.4988 22.9412C12.0292 21.4108 14.1032 20.5484 16.2675 20.5424H17.4375C17.9093 19.0492 18.757 17.7022 19.8993 16.631C21.0416 15.5597 22.4401 14.8001 23.9605 14.4251C25.481 14.0501 27.0723 14.0722 28.5817 14.4894C30.0912 14.9066 31.468 15.7048 32.58 16.8074C33.0978 17.3288 33.551 17.9105 33.93 18.5399" stroke="white" stroke-width="2.7" stroke-linecap="round" stroke-linejoin="round"/>
<path d="M41.2652 24.3449C42.3156 24.0406 43.2819 23.4988 44.0895 22.7614C44.8971 22.0241 45.5243 21.1109 45.9227 20.0924C44.8059 20.0144 43.7232 19.6745 42.7621 19.1004C41.8011 18.5263 40.9886 17.7339 40.3906 16.7876C39.7925 15.8412 39.4256 14.7673 39.3196 13.6529C39.2136 12.5384 39.3714 11.4146 39.7802 10.3724H39.2852C37.6352 10.3718 36.036 10.9432 34.7601 11.9894C33.4842 13.0356 32.6104 14.4918 32.2877 16.1099" stroke="white" stroke-width="2.7" stroke-linecap="round" stroke-linejoin="round"/>
<path d="M26.5496 37.3049H23.5796C23.4833 37.3045 23.3893 37.2761 23.309 37.223C23.2287 37.17 23.1655 37.0947 23.1273 37.0064C23.0891 36.9181 23.0775 36.8205 23.0939 36.7257C23.1103 36.6308 23.154 36.5428 23.2196 36.4724L29.9696 29.0024C30.0465 28.919 30.1498 28.8646 30.2621 28.8482C30.3744 28.8318 30.4889 28.8545 30.5864 28.9125C30.684 28.9705 30.7586 29.0603 30.7979 29.1668C30.8371 29.2733 30.8386 29.39 30.8021 29.4974L28.7996 35.1224" stroke="white" stroke-width="1.6875" stroke-linecap="round" stroke-linejoin="round"/>
<path d="M28.9124 35.3474H31.8824C31.9806 35.3432 32.0778 35.3684 32.1616 35.4197C32.2454 35.4709 32.312 35.546 32.353 35.6353C32.3941 35.7245 32.4076 35.824 32.3919 35.921C32.3762 36.018 32.332 36.1081 32.2649 36.1799L25.5149 43.6499C25.4313 43.7103 25.3309 43.743 25.2278 43.7436C25.1247 43.7441 25.0239 43.7125 24.9396 43.653C24.8554 43.5935 24.7918 43.5092 24.7578 43.4118C24.7238 43.3144 24.721 43.2089 24.7499 43.1099L26.7299 37.5074" stroke="white" stroke-width="1.6875" stroke-linecap="round" stroke-linejoin="round"/>
</svg>
