<svg width="54" height="54" viewBox="0 0 54 54" fill="none" xmlns="http://www.w3.org/2000/svg">
<path d="M29.9475 21.2625C30.8109 20.6297 31.8474 20.2764 32.9175 20.25C34.29 20.25 35.6063 20.7952 36.5768 21.7657C37.5473 22.7362 38.0925 24.0525 38.0925 25.425C38.0957 26.2641 37.892 27.0911 37.4996 27.8328C37.1071 28.5745 36.538 29.208 35.8425 29.6775" stroke="white" stroke-width="2.6325" stroke-linecap="round" stroke-linejoin="round"/>
<path d="M32.917 15.5926V12.5551" stroke="white" stroke-width="2.6325" stroke-linecap="round" stroke-linejoin="round"/>
<path d="M39.9155 32.4675L42.0755 34.6275" stroke="white" stroke-width="2.6325" stroke-linecap="round" stroke-linejoin="round"/>
<path d="M42.8171 25.4926H45.8546" stroke="white" stroke-width="2.6325" stroke-linecap="round" stroke-linejoin="round"/>
<path d="M39.9155 18.495L42.0755 16.3575" stroke="white" stroke-width="2.6325" stroke-linecap="round" stroke-linejoin="round"/>
<path d="M15.7499 38.2501C14.3379 38.333 12.93 38.0296 11.6774 37.3726C10.5673 36.7924 9.64057 35.9148 9.00082 34.838C8.36106 33.7611 8.03355 32.5275 8.05494 31.2751C8.05494 29.3775 8.80877 27.5576 10.1506 26.2157C11.4924 24.8739 13.3123 24.1201 15.2099 24.1201H16.2224C16.6335 22.8142 17.3743 21.6363 18.3732 20.7001C19.3721 19.7639 20.5955 19.101 21.9253 18.7754C23.255 18.4497 24.6463 18.4723 25.9648 18.841C27.2832 19.2097 28.4844 19.9119 29.4524 20.8801C29.9049 21.3284 30.3049 21.8266 30.6449 22.3651" stroke="white" stroke-width="2.6325" stroke-linecap="round" stroke-linejoin="round"/>
<path d="M25.29 36.0001H22.68C22.5963 36.0007 22.5143 35.9768 22.4441 35.9313C22.3739 35.8857 22.3186 35.8206 22.2851 35.7439C22.2516 35.6673 22.2413 35.5825 22.2555 35.5C22.2697 35.4176 22.3078 35.3411 22.365 35.2801L28.2375 28.7551C28.27 28.7063 28.3118 28.6645 28.3605 28.6319C28.4092 28.5992 28.4638 28.5766 28.5213 28.5651C28.5787 28.5536 28.6379 28.5535 28.6953 28.5649C28.7528 28.5762 28.8075 28.5988 28.8563 28.6313C28.905 28.6638 28.9469 28.7056 28.9795 28.7543C29.0121 28.803 29.0348 28.8576 29.0463 28.9151C29.0578 28.9725 29.0578 29.0317 29.0465 29.0892C29.0351 29.1467 29.0125 29.2013 28.98 29.2501L27.2475 34.1326" stroke="white" stroke-width="1.6875" stroke-linecap="round" stroke-linejoin="round"/>
<path d="M27.3372 34.2675H29.9472C30.0308 34.2668 30.1128 34.2908 30.183 34.3363C30.2532 34.3818 30.3085 34.447 30.3421 34.5236C30.3756 34.6003 30.3859 34.6851 30.3717 34.7675C30.3575 34.85 30.3194 34.9265 30.2622 34.9875L24.3672 41.5125C24.3009 41.5852 24.2115 41.6328 24.1142 41.6473C24.0169 41.6617 23.9176 41.6422 23.833 41.592C23.7484 41.5418 23.6838 41.4639 23.6499 41.3716C23.616 41.2792 23.6151 41.178 23.6472 41.085L25.3797 36.2025" stroke="white" stroke-width="1.6875" stroke-linecap="round" stroke-linejoin="round"/>
</svg>
