<svg width="54" height="54" viewBox="0 0 54 54" fill="none" xmlns="http://www.w3.org/2000/svg">
<g clip-path="url(#clip0_1_3085)">
<path d="M27.0006 14.985C27.0299 12.6731 27.4798 10.3858 28.3281 8.23499C27.8781 8.23499 27.4506 8.23499 27.0006 8.23499C24.1026 8.2326 21.2431 8.89823 18.6442 10.1802C16.0452 11.4621 13.7767 13.3259 12.0149 15.6268C10.253 17.9276 9.04522 20.6036 8.4853 23.4469C7.92537 26.2903 8.02839 29.2244 8.78634 32.0215C9.54428 34.8185 10.9368 37.4032 12.8556 39.5749C14.7745 41.7465 17.1681 43.4466 19.8506 44.5431C22.5331 45.6396 25.4322 46.1031 28.3228 45.8975C31.2135 45.6918 34.0178 44.8227 36.5181 43.3575" stroke="white" stroke-width="2.7" stroke-linecap="round" stroke-linejoin="round"/>
<path d="M34.8317 16.3575C35.0311 15.0007 35.7271 13.7662 36.7849 12.8933C37.8426 12.0204 39.1867 11.5713 40.5567 11.6329C41.9267 11.6946 43.225 12.2626 44.2001 13.2269C45.1751 14.1913 45.7575 15.4833 45.8342 16.8525C45.793 18.2709 45.1928 19.6155 44.1644 20.5933C43.1361 21.5711 41.7629 22.1028 40.3442 22.0725H31.3442" stroke="white" stroke-width="2.7675" stroke-linecap="round" stroke-linejoin="round"/>
<path d="M31.7023 32.5576C31.7981 33.5678 32.1851 34.5285 32.8162 35.3231C33.4473 36.1177 34.2955 36.7121 35.2579 37.0341C36.2202 37.3561 37.2553 37.3919 38.2376 37.1371C39.2198 36.8823 40.107 36.3479 40.7915 35.5988C41.476 34.8497 41.9284 33.918 42.0938 32.9168C42.2591 31.9156 42.1304 30.8879 41.7231 29.9584C41.3158 29.029 40.6475 28.2377 39.7993 27.6806C38.9512 27.1235 37.9595 26.8246 36.9448 26.8201H28.3273" stroke="white" stroke-width="2.7" stroke-linecap="round" stroke-linejoin="round"/>
</g>
<defs>
<clipPath id="clip0_1_3085">
<rect x="6.75" y="6.75" width="40.455" height="40.41" rx="11.25" fill="white"/>
</clipPath>
</defs>
</svg>
