<svg width="54" height="54" viewBox="0 0 54 54" fill="none" xmlns="http://www.w3.org/2000/svg">
<path d="M28.2487 34.7874C26.2496 34.7874 24.3324 33.9933 22.9189 32.5797C21.5053 31.1662 20.7112 29.249 20.7112 27.2499C20.7112 25.2508 21.5053 23.3336 22.9189 21.9201C24.3324 20.5065 26.2496 19.7124 28.2487 19.7124" stroke="white" stroke-width="2.7" stroke-linecap="round" stroke-linejoin="round"/>
<path d="M28.25 12.805V8.34998" stroke="white" stroke-width="2.7" stroke-linecap="round" stroke-linejoin="round"/>
<path d="M18.034 17.035L14.884 13.885" stroke="white" stroke-width="2.7" stroke-linecap="round" stroke-linejoin="round"/>
<path d="M13.8041 27.25H9.34912" stroke="white" stroke-width="2.7" stroke-linecap="round" stroke-linejoin="round"/>
<path d="M18.034 37.465L14.884 40.615" stroke="white" stroke-width="2.7" stroke-linecap="round" stroke-linejoin="round"/>
<path d="M28.25 41.6949V46.1499" stroke="white" stroke-width="2.7" stroke-linecap="round" stroke-linejoin="round"/>
<path d="M35.4485 20.5001C35.5312 19.6599 35.8558 18.8618 36.3828 18.2024C36.9099 17.5429 37.6169 17.0505 38.4181 16.7847C39.2194 16.5188 40.0805 16.4911 40.8972 16.7047C41.7139 16.9184 42.4512 17.3643 43.0196 17.9884C43.5881 18.6125 43.9634 19.3881 44.1 20.2211C44.2366 21.0542 44.1288 21.909 43.7894 22.682C43.4501 23.455 42.894 24.1131 42.1883 24.5764C41.4826 25.0397 40.6577 25.2885 39.8135 25.2926H32.6135" stroke="white" stroke-width="2.7" stroke-linecap="round" stroke-linejoin="round"/>
<path d="M33.0647 34.4275C33.1431 35.2681 33.4636 36.068 33.9874 36.7302C34.5111 37.3923 35.2157 37.8884 36.0157 38.1583C36.8157 38.4282 37.6768 38.4602 38.4946 38.2506C39.3125 38.041 40.052 37.5987 40.6235 36.9773C41.1951 36.3559 41.5742 35.5821 41.7149 34.7496C41.8555 33.9171 41.7518 33.0617 41.4161 32.287C41.0805 31.5123 40.5274 30.8516 39.8238 30.3849C39.1203 29.9181 38.2965 29.6655 37.4522 29.6575H30.2297" stroke="white" stroke-width="2.7" stroke-linecap="round" stroke-linejoin="round"/>
</svg>
