<svg width="54" height="54" viewBox="0 0 54 54" fill="none" xmlns="http://www.w3.org/2000/svg">
<g clip-path="url(#clip0_1_3207)">
<path d="M36.0002 24.0975C36.0874 23.139 36.4508 22.2264 37.0464 21.4704C37.642 20.7144 38.4443 20.1475 39.3558 19.8385C40.2673 19.5294 41.2488 19.4916 42.1814 19.7295C43.114 19.9674 43.9575 20.4708 44.6096 21.1787C45.2617 21.8866 45.6943 22.7685 45.855 23.7175C46.0157 24.6664 45.8975 25.6416 45.5149 26.5247C45.1322 27.4078 44.5015 28.1609 43.6992 28.6926C42.897 29.2243 41.9576 29.5117 40.9952 29.52H10.9127" stroke="white" stroke-width="2.7" stroke-linecap="round" stroke-linejoin="round"/>
<path d="M20.7452 19.35C20.8323 18.396 21.1944 17.4878 21.7876 16.7355C22.3807 15.9832 23.1794 15.4192 24.0868 15.1118C24.9941 14.8045 25.9712 14.7671 26.8994 15.0041C27.8276 15.2411 28.6671 15.7424 29.3161 16.4471C29.965 17.1519 30.3955 18.0298 30.5553 18.9743C30.7152 19.9189 30.5975 20.8896 30.2165 21.7686C29.8356 22.6476 29.2078 23.3971 28.4092 23.9264C27.6106 24.4556 26.6757 24.7417 25.7177 24.75H8.10022" stroke="white" stroke-width="2.7" stroke-linecap="round" stroke-linejoin="round"/>
<path d="M29.7672 39.7126C29.8586 40.6706 30.2261 41.5815 30.8251 42.3347C31.424 43.088 32.2287 43.6513 33.1415 43.9563C34.0542 44.2612 35.0359 44.2948 35.9673 44.0528C36.8988 43.8109 37.74 43.3038 38.389 42.5932C39.0379 41.8826 39.4667 40.9989 39.6234 40.0494C39.78 39.0998 39.6577 38.1252 39.2714 37.2438C38.8851 36.3624 38.2513 35.612 37.4469 35.0838C36.6425 34.5555 35.702 34.2719 34.7397 34.2676H17.1222" stroke="white" stroke-width="2.7" stroke-linecap="round" stroke-linejoin="round"/>
</g>
<defs>
<clipPath id="clip0_1_3207">
<rect x="6.75" y="13.5" width="40.5" height="32.0625" rx="11.25" fill="white"/>
</clipPath>
</defs>
</svg>
